<svg xmlns="http://www.w3.org/2000/svg" xmlns:xlink="http://www.w3.org/1999/xlink">
<!-- The social icons are taken lovingly from https://github.com/jekyll/minima/tree/master/_includes/social-icons
This folder should be deleted once minima 3.0 is released and bluesky icon is available directly. -->

<symbol id="bluesky" fill-rule="evenodd" clip-rule="evenodd" stroke-linejoin="round" stroke-miterlimit="1.414" viewBox="0 0 16 16">
  <path d="m 3.46821,1.9044433 c 1.83436,1.37712 3.80743,4.16936 4.53184,5.66783 0.72446,-1.49836 2.69742,-4.29073 4.53183,-5.66783 C 13.85546,0.91076333 16,0.14191333 16,2.5884433 c 0,0.4886 -0.28014,4.10453 -0.44444,4.69156 -0.57111,2.04092 -2.65223,2.56147 -4.50342,2.24641 3.23584,0.5507297 4.05901,2.3749397 2.28128,4.1991497 -3.37625,3.46453 -4.85266,-0.86927 -5.23114,-1.97974 -0.0693,-0.20358 -0.1018,-0.29881 -0.10228,-0.21783 -4.8e-4,-0.081 -0.0329,0.0143 -0.10228,0.21783 -0.37832,1.11047 -1.85469,5.44438 -5.23114,1.97974 C 0.88882,11.901353 1.71196,10.077033 4.94786,9.5264133 3.09662,9.8414733 1.01547,9.3209233 0.44444,7.2800033 0.28013,6.6929133 0,3.0769933 0,2.5884433 0,0.14191333 2.14459,0.91076333 3.46812,1.9044433 Z" fill-rule="nonzero"/>
</symbol>

<symbol id="github" fill-rule="evenodd" clip-rule="evenodd" stroke-linejoin="round" stroke-miterlimit="1.414" viewBox="0 0 16 16">
  <path d="M8 0C3.58 0 0 3.582 0 8c0 3.535 2.292 6.533 5.47 7.59.4.075.547-.172.547-.385 0-.19-.007-.693-.01-1.36-2.226.483-2.695-1.073-2.695-1.073-.364-.924-.89-1.17-.89-1.17-.725-.496.056-.486.056-.486.803.056 1.225.824 1.225.824.714 1.223 1.873.87 2.33.665.072-.517.278-.87.507-1.07-1.777-.2-3.644-.888-3.644-3.953 0-.873.31-1.587.823-2.147-.09-.202-.36-1.015.07-2.117 0 0 .67-.215 2.2.82.64-.178 1.32-.266 2-.27.68.004 1.36.092 2 .27 1.52-1.035 2.19-.82 2.19-.82.43 1.102.16 1.915.08 2.117.51.56.82 1.274.82 2.147 0 3.073-1.87 3.75-3.65 3.947.28.24.54.73.54 1.48 0 1.07-.01 1.93-.01 2.19 0 .21.14.46.55.38C13.71 14.53 16 11.53 16 8c0-4.418-3.582-8-8-8" fill-rule="nonzero"/>
</symbol>

<symbol id="gitlab" fill-rule="evenodd" clip-rule="evenodd" stroke-linejoin="round" stroke-miterlimit="1.414" viewBox="0 0 16 16">
  <path d="m15.73 6.39-.023-.058L13.535.656a.587.587 0 0 0-.566-.36.61.61 0 0 0-.332.126.593.593 0 0 0-.192.293l-1.468 4.5h-5.95L3.555.715A.568.568 0 0 0 3.03.297a.558.558 0 0 0-.34.09.557.557 0 0 0-.222.27L.289 6.34l-.023.055a4.07 4.07 0 0 0-.11 2.558c.242.844.75 1.586 1.45 2.113l.007.004.02.016 3.32 2.484 1.637 1.242 1 .754a.67.67 0 0 0 .812 0l.996-.753 1.641-1.243 3.336-2.5.012-.004a4.049 4.049 0 0 0 1.343-4.675Zm0 0" fill-rule="nonzero"/>
</symbol>

<symbol id="linkedin" fill-rule="evenodd" clip-rule="evenodd" stroke-linejoin="round" stroke-miterlimit="1.414" viewBox="0 0 16 16">
  <path d="M13.632 13.635h-2.37V9.922c0-.886-.018-2.025-1.234-2.025-1.235 0-1.424.964-1.424 1.96v3.778h-2.37V6H8.51v1.04h.03c.318-.6 1.092-1.233 2.247-1.233 2.4 0 2.845 1.58 2.845 3.637v4.188zM3.558 4.955c-.762 0-1.376-.617-1.376-1.377 0-.758.614-1.375 1.376-1.375.76 0 1.376.617 1.376 1.375 0 .76-.617 1.377-1.376 1.377zm1.188 8.68H2.37V6h2.376v7.635zM14.816 0H1.18C.528 0 0 .516 0 1.153v13.694C0 15.484.528 16 1.18 16h13.635c.652 0 1.185-.516 1.185-1.153V1.153C16 .516 15.467 0 14.815 0z" fill-rule="nonzero"/>
</symbol>

<symbol id="rss" fill-rule="evenodd" clip-rule="evenodd" stroke-linejoin="round" stroke-miterlimit="1.414" viewBox="0 0 16 16">
  <path d="M12.8 16C12.8 8.978 7.022 3.2 0 3.2V0c8.777 0 16 7.223 16 16h-3.2zM2.194 11.61c1.21 0 2.195.985 2.195 2.196 0 1.21-.99 2.194-2.2 2.194C.98 16 0 15.017 0 13.806c0-1.21.983-2.195 2.194-2.195zM10.606 16h-3.11c0-4.113-3.383-7.497-7.496-7.497v-3.11c5.818 0 10.606 4.79 10.606 10.607z" fill-rule="nonzero"/>
</symbol>

</svg>
